<?xml version="1.0" encoding="UTF-8"?>
<svg xmlns="http://www.w3.org/2000/svg" version="1.1" xmlns:xlink="http://www.w3.org/1999/xlink" viewBox="0 0 890 1366">
  <!-- Generator: Adobe Illustrator 29.0.1, SVG Export Plug-In . SVG Version: 2.1.0 Build 192)  -->
  <defs>
    <style>
      .st0 {
        fill: url(#linear-gradient2);
      }

      .st1, .st2, .st3 {
        stroke-width: 6px;
      }

      .st1, .st2, .st3, .st4 {
        stroke-miterlimit: 10;
      }

      .st1, .st3, .st4, .st5, .st6 {
        fill: #023049;
      }

      .st1, .st4 {
        stroke: #669abb;
      }

      .st1, .st4, .st5, .st7 {
        font-weight: 700;
      }

      .st1, .st4, .st7 {
        font-family: Arial-BoldMT, Arial;
      }

      .st1, .st7 {
        font-size: 241px;
      }

      .st8, .st7 {
        fill: #c0111f;
      }

      .st9 {
        fill: url(#linear-gradient1);
      }

      .st2 {
        fill: none;
      }

      .st2, .st3 {
        stroke: #ffedd4;
      }

      .st4 {
        font-size: 52px;
      }

      .st5 {
        font-family: MicrosoftYaHeiUI-Bold, 'Microsoft YaHei UI';
        font-size: 110.77px;
      }

      .st10 {
        fill: #ffedd4;
      }

      .st11 {
        fill: url(#linear-gradient);
      }
    </style>
    <linearGradient id="linear-gradient" x1="321" y1="676.5" x2="1134" y2="676.5" gradientUnits="userSpaceOnUse">
      <stop offset="0" stop-color="#669abb"/>
      <stop offset="1" stop-color="#023049"/>
    </linearGradient>
    <linearGradient id="linear-gradient1" x1="-271" y1="-9.5" x2="558" y2="-9.5" xlink:href="#linear-gradient"/>
    <linearGradient id="linear-gradient2" x1="303" y1="-44.5" x2="1328" y2="-44.5" xlink:href="#linear-gradient"/>
  </defs>
  <g id="Layer_1">
    <g>
      <rect class="st10" x="416" y="645" width="718" height="718"/>
      <path class="st6" d="M1131,648v712H419v-712h712M1137,642H413v724h724v-724h0Z"/>
    </g>
    <g>
      <rect class="st11" x="321" y="645" width="813" height="63"/>
      <path class="st6" d="M1131,648v57H324v-57h807M1137,642H318v69h819v-69h0Z"/>
    </g>
    <g>
      <rect class="st10" x="-271" y="-41" width="829" height="1377"/>
      <path class="st6" d="M555-38v1371H-268V-38h823M561-44H-274v1383h835V-44h0Z"/>
    </g>
    <g>
      <rect class="st9" x="-271" y="-41" width="829" height="63"/>
      <path class="st6" d="M555-38V19H-268v-57h823M561-44H-274V25h835V-44h0Z"/>
    </g>
    <g>
      <g>
        <path class="st6" d="M510,11c-13.79,0-25-10.54-25-23.5s11.21-23.5,25-23.5,25,10.54,25,23.5-11.21,23.5-25,23.5Z"/>
        <path class="st10" d="M510-33c12.13,0,22,9.2,22,20.5s-9.87,20.5-22,20.5-22-9.2-22-20.5,9.87-20.5,22-20.5M510-39c-15.46,0-28,11.86-28,26.5s12.54,26.5,28,26.5,28-11.86,28-26.5-12.54-26.5-28-26.5h0Z"/>
      </g>
      <line class="st2" x1="498" y1="-23" x2="518" y2="-2"/>
      <line class="st3" x1="518" y1="-23.38" x2="500" y2="-2"/>
    </g>
    <g>
      <rect class="st10" x="301" y="-77" width="1030" height="716"/>
      <path class="st6" d="M1328-74v710H304V-74h1024M1334-80H298v722h1036V-80h0Z"/>
    </g>
    <g>
      <rect class="st0" x="303" y="-76" width="1025" height="63"/>
      <path class="st6" d="M1325-73V-16H306v-57h1019M1331-79H300V-10h1031v-69h0Z"/>
    </g>
    <g>
      <g>
        <path class="st6" d="M1088,703c-13.79,0-25-10.54-25-23.5s11.21-23.5,25-23.5,25,10.54,25,23.5-11.21,23.5-25,23.5Z"/>
        <path class="st10" d="M1088,659c12.13,0,22,9.2,22,20.5s-9.87,20.5-22,20.5-22-9.2-22-20.5,9.87-20.5,22-20.5M1088,653c-15.46,0-28,11.86-28,26.5s12.54,26.5,28,26.5,28-11.86,28-26.5-12.54-26.5-28-26.5h0Z"/>
      </g>
      <line class="st2" x1="1076" y1="669" x2="1096" y2="690"/>
      <line class="st3" x1="1096" y1="668.62" x2="1078" y2="690"/>
    </g>
    <g>
      <g>
        <path class="st6" d="M1287-21c-13.79,0-25-10.54-25-23.5s11.21-23.5,25-23.5,25,10.54,25,23.5-11.21,23.5-25,23.5Z"/>
        <path class="st10" d="M1287-65c12.13,0,22,9.2,22,20.5s-9.87,20.5-22,20.5-22-9.2-22-20.5,9.87-20.5,22-20.5M1287-71c-15.46,0-28,11.86-28,26.5s12.54,26.5,28,26.5,28-11.86,28-26.5-12.54-26.5-28-26.5h0Z"/>
      </g>
      <line class="st2" x1="1275" y1="-55" x2="1295" y2="-34"/>
      <line class="st3" x1="1295" y1="-55.38" x2="1277" y2="-34"/>
    </g>
  </g>
  <g id="Layer_2">
    <text class="st1" transform="translate(-100.49 574.32)"><tspan x="0" y="0">404</tspan></text>
    <g>
      <g>
        <path class="st10" d="M77.44,641h92.12c13.49,0,24.44,10.95,24.44,24.44v14.12c0,13.49-10.95,24.44-24.44,24.44h-92.12c-13.49,0-24.44-10.95-24.44-24.44v-14.12c0-13.49,10.95-24.44,24.44-24.44Z"/>
        <path class="st6" d="M169.56,644c11.82,0,21.44,9.62,21.44,21.44v14.12c0,11.82-9.62,21.44-21.44,21.44h-92.12c-11.82,0-21.44-9.62-21.44-21.44v-14.12c0-11.82,9.62-21.44,21.44-21.44h92.12M169.56,638h-92.12c-15.15,0-27.44,12.28-27.44,27.44v14.12c0,15.15,12.28,27.44,27.44,27.44h92.12c15.15,0,27.44-12.28,27.44-27.44v-14.12c0-15.15-12.28-27.44-27.44-27.44h0Z"/>
      </g>
      <text class="st4" transform="translate(92.82 685.02)"><tspan x="0" y="0">ok</tspan></text>
    </g>
    <text class="st7" transform="translate(412.68 173.81)"><tspan x="0" y="0">Whilmis</tspan></text>
    <ellipse class="st8" cx="388.5" cy="323" rx="236.5" ry="233"/>
    <text></text>
    <text class="st5" transform="translate(1008 838.15) scale(.91 1)"><tspan x="0" y="0">有</tspan><tspan x="0" y="113.08">創</tspan><tspan x="0" y="226.15">造</tspan><tspan x="0" y="339.22">力</tspan><tspan x="0" y="452.3">的</tspan></text>
  </g>
</svg>