<svg width="32" height="32" viewBox="0 0 32 32" fill="none" xmlns="http://www.w3.org/2000/svg">
<path d="M27 4H5.66666C4.19599 4 2.99999 5.196 2.99999 6.66667V25.3333C2.99999 26.804 4.19599 28 5.66666 28H27C28.4707 28 29.6667 26.804 29.6667 25.3333V6.66667C29.6667 5.196 28.4707 4 27 4ZM5.66666 25.3333V9.33333H27L27.0027 25.3333H5.66666Z" fill="#FFEDD4"/>
<path d="M12.9427 12.3907L8 17.3334L12.9427 22.276L14.828 20.3907L11.7707 17.3334L14.828 14.276L12.9427 12.3907ZM20.1613 12.3907L18.276 14.276L21.3333 17.3334L18.276 20.3907L20.1613 22.276L25.104 17.3334L20.1613 12.3907Z" fill="#FFEDD4"/>
</svg>
