<?xml version="1.0" encoding="UTF-8"?>
<svg id="Capa_1" xmlns="http://www.w3.org/2000/svg" version="1.1" viewBox="0 0 512 512">
  <!-- Generator: Adobe Illustrator 29.0.1, SVG Export Plug-In . SVG Version: 2.1.0 Build 192)  -->
  <defs>
    <style>
      .st0 {
        fill: #ffedd4;
      }
    </style>
  </defs>
  <g id="Group">
    <g id="Rectangle_55_x5F_2">
      <path class="st0" d="M390.7,175.9c26.1-17.1,43.3-46.7,43.3-80.1,0-52.8-43-95.8-95.8-95.8h-164.4c-52.8,0-95.8,43-95.8,95.8s17.3,63,43.3,80.1c-26.1,17.1-43.3,46.7-43.3,80.1s17.3,63,43.3,80.1c-26.1,17.1-43.3,46.6-43.3,80.1,0,52.8,43.2,95.8,96.3,95.8s97.4-43.4,97.4-96.8v-88.3c17,15.5,39.6,25,64.4,25h2.1c52.8,0,95.8-43,95.8-95.8s-17.3-63-43.3-80.1ZM271.7,31.4h66.5c35.5,0,64.4,28.9,64.4,64.4s-28.9,64.4-64.4,64.4h-66.5V31.4h0ZM109.4,95.8c0-35.5,28.9-64.4,64.4-64.4h66.5v128.8h-66.5c-35.5,0-64.4-28.9-64.4-64.4ZM109.4,256c0-35.5,28.9-64.4,64.4-64.4h66.5v128.8h-66.9c-35.3-.2-64-29.1-64-64.4ZM240.3,415.2c0,36.1-29.6,65.5-66,65.5s-64.9-28.9-64.9-64.4,28.9-64.4,64.4-64.4h66.5v63.4h0ZM338.2,320.4h-2.1c-35.5,0-64.4-28.9-64.4-64.4s28.9-64.4,64.4-64.4h2.1c35.5,0,64.4,28.9,64.4,64.4s-28.9,64.4-64.4,64.4Z"/>
    </g>
    <g id="Rectangle_55_x5F_4">
      <path class="st0" d="M173.8,320.4h-.4,66.9-66.5Z"/>
    </g>
  </g>
</svg>