<?xml version="1.0" encoding="UTF-8"?>
<svg id="Layer_1" xmlns="http://www.w3.org/2000/svg" version="1.1" viewBox="0 0 50 50">
  <!-- Generator: Adobe Illustrator 29.0.1, SVG Export Plug-In . SVG Version: 2.1.0 Build 192)  -->
  <defs>
    <style>
      .st0 {
        fill: #023049;
      }
    </style>
  </defs>
  <path class="st0" d="M17.8,46.8c.7-.3,1.2-1,1.2-1.8v-5.4c0-.2,0-.4,0-.6,0,0,0,0,0,0h-3.6c-1.5,0-2.8-.6-3.4-1.8-.7-1.3-1-3.5-2.8-4.7-.3-.2,0-.5.5-.5.6,0,1.9.9,2.7,2,.9,1.1,1.8,2,3.4,2,2.5,0,3.8-.1,4.6-.6.9-1.4,2.2-2.4,3.6-2.4h0c-5.7-.2-9.3-2.1-11-5-3.7,0-6.9.4-8.7.7,0-.3-.1-.7-.2-1,1.8-.3,4.8-.6,8.3-.7-.1-.3-.2-.6-.3-.8-3.5-.2-6.5,0-8.2,0,0-.3,0-.7,0-1,1.6-.1,4.6-.3,8-.1,0-.5-.1-1-.1-1.5,0-1.7.6-3.5,1.7-5-.5-1.7-1.2-5.3.2-6.6,2.7,0,4.6,1.3,5.5,2.1,1.7-.7,3.6-1.1,5.7-1.1s4,.4,5.6,1.1c.9-.8,2.8-2.1,5.5-2.1,1.5,1.4.7,5,.2,6.6,1.1,1.5,1.7,3.2,1.6,5,0,.5,0,1-.1,1.4,3.5-.2,6.5,0,8.2.1,0,.3,0,.7,0,1-1.7-.1-4.8-.3-8.4,0,0,.3-.2.7-.3,1,3.5,0,6.7.4,8.5.7,0,.3,0,.7-.2,1-1.9-.3-5.2-.7-8.9-.7-1.7,2.9-5.2,4.8-10.8,5h0c2.6,0,5,3.9,5,6.6v5.4c0,.8.5,1.5,1.2,1.8,9.2-3,15.8-11.7,15.8-21.8S37.7,2,25,2,2,12.3,2,25s6.6,18.8,15.8,21.8Z"/>
</svg>