<?xml version="1.0" encoding="UTF-8"?>
<svg id="Capa_1" xmlns="http://www.w3.org/2000/svg" version="1.1" viewBox="0 0 512 512">
  <!-- Generator: Adobe Illustrator 29.0.1, SVG Export Plug-In . SVG Version: 2.1.0 Build 192)  -->
  <defs>
    <style>
      .st0 {
        fill: #ffedd4;
      }
    </style>
  </defs>
  <path class="st0" d="M108.4,0h23v22.8h21.2V0h23v69h-23v-23h-21v23h-23.2V0ZM206,23h-20.3V0h63.7v23h-20.4v46h-23V23ZM259.5,0h24.1l14.8,24.3,14.8-24.3h24.1v69h-23v-34.2l-16.1,24.8-16.1-24.8v34.2h-22.6V0ZM348.7,0h23v46.2h32.6v22.8h-55.6V0h0Z"/>
  <path class="st0" d="M74.6,100.6l33,370.4,148.1,41,148.7-41.2,33-370.2H74.6ZM142,176.3h113.8v45.4h-64l4.2,46.5h59.8v45.3h-101.4l-12.4-137.2ZM256,313.6h55.8l-5.3,59-50.5,13.5v-72.6ZM376,447l-120,33.5v-46.9l-93.2-26-6.4-71.3h45.6l3.2,36.3,50.7,13.6h-.1v47.2h.2s92.8-25.8,92.8-25.8l12.5-139.4h-105.3v-46.5h109.4l4.2-45.4h-113.6v-45.3h148.3l-28.3,316Z"/>
  <polygon class="st0" points="256 268.2 361.3 268.2 348.8 407.6 256 433.3 256 386.2 306.5 372.6 311.8 313.6 256 313.6 256 268.2"/>
  <polygon class="st0" points="369.6 176.3 365.4 221.7 256 221.7 256 176.3 369.6 176.3"/>
  <path class="st0" d="M255.8,176.3v45.4h.2v-45.4h-.2ZM255.8,268.2v45.3h.2v-45.3h-.2ZM255.9,386.2h-.1v47.2h.2v-47.2h-.1Z"/>
  <path class="st0" d="M255.8,176.3v45.4h109.6l4.2-45.4h-113.8ZM255.8,268.2v45.4h56l-5.3,59-50.5,13.5h-.1s-.1,0-.1,0v47.2h.2s92.8-25.8,92.8-25.8l12.5-139.4h-105.5Z"/>
</svg>