<?xml version="1.0" encoding="UTF-8"?>
<svg id="js" xmlns="http://www.w3.org/2000/svg" version="1.1" viewBox="0 0 512 512">
  <!-- Generator: Adobe Illustrator 29.0.1, SVG Export Plug-In . SVG Version: 2.1.0 Build 192)  -->
  <defs>
    <style>
      .st0 {
        fill: #ffedd4;
      }
    </style>
  </defs>
  <path class="st0" d="M343.9,400c8.9,18,27.3,29.4,47.5,29.2,19.9,0,32.7-10,32.7-23.7s-13.1-22.3-35-32l-12-5.2c-34.7-14.8-57.8-33.3-57.8-72.5.3-35.5,29.2-64.1,64.8-63.8,1.9,0,3.8.1,5.6.3,28.5-2.1,55.5,13.2,68.5,38.7l-37.5,24c-5-12.6-17.4-20.8-31-20.6-11.5-1.2-21.8,7.2-22.9,18.8,0,.6,0,1.2-.1,1.9,0,14.4,8.9,20.3,29.6,29.2l12,5.1c40.9,17.5,64,35.4,64,75.6s-34,67.1-79.7,67.1c-36.4,2.3-70.7-16.9-87.7-49.2l39.1-22.8ZM174,404.3c7.6,13.4,14.4,24.7,31,24.7s25.8-6.2,25.8-30.3v-163.7h48.1v164.3c4.2,35.8-21.5,68.3-57.3,72.5-4.8.6-9.7.6-14.5,0-30.8,1.7-59.5-15.8-72.2-43.9l39.2-23.7Z"/>
</svg>