<?xml version="1.0" encoding="UTF-8"?>
<svg id="Capa_1" xmlns="http://www.w3.org/2000/svg" version="1.1" viewBox="0 0 512 512">
  <!-- Generator: Adobe Illustrator 29.0.1, SVG Export Plug-In . SVG Version: 2.1.0 Build 192)  -->
  <defs>
    <style>
      .st0 {
        fill: #023049;
      }
    </style>
  </defs>
  <path id="Path_2525" class="st0" d="M490.7,460.5h4.8l-9.3-14h0c5.7,0,8.7-3.6,8.7-8,0-.2,0-.4,0-.5,0-6-3.6-8.9-11.1-8.9h-12v31.5h4.5v-13.7h5.6l8.7,13.7ZM481.6,443.2h-5.2v-10.6h6.7c3.4,0,7.4.6,7.4,5.1s-4,5.6-8.8,5.6"/>
  <path id="Path_2520" class="st0" d="M368.9,406.9h-64.1v-100.5c0-24-.4-54.8-33.4-54.8s-38.5,26.1-38.5,53.1v102.2h-64.1v-206.6h61.6v28.2h.9c12.6-21.5,35.9-34.3,60.8-33.4,65,0,77,42.8,77,98.4v113.3ZM96.3,172.1c-20.6,0-37.2-16.7-37.2-37.2s16.7-37.2,37.2-37.2,37.2,16.7,37.2,37.2c0,20.6-16.7,37.2-37.2,37.2h0M128.4,406.9h-64.2v-206.6h64.2v206.6ZM400.9,38H31.9C14.5,37.8.2,51.8,0,69.2v370.4c.2,17.5,14.5,31.4,31.9,31.2h368.9c17.5.2,31.8-13.8,32.1-31.2V69.2c-.3-17.5-14.6-31.4-32.1-31.2"/>
  <path id="Path_2526" class="st0" d="M482.2,415c-16.3.1-29.4,13.5-29.2,29.8.1,16.3,13.5,29.4,29.8,29.2,16.3-.1,29.4-13.5,29.2-29.8-.1-16.1-13.2-29.1-29.2-29.2h-.6M482.9,470.6c-14.3.2-26.8-11.1-27-25.4s11.2-26.1,25.5-26.3,26.1,11.2,26.3,25.5v.4c.3,14-10.8,25.6-24.8,25.9h-.7"/>
</svg>