<?xml version="1.0" encoding="UTF-8"?>
<svg id="Layer_1" xmlns="http://www.w3.org/2000/svg" version="1.1" viewBox="0 0 32 32">
  <!-- Generator: Adobe Illustrator 29.0.1, SVG Export Plug-In . SVG Version: 2.1.0 Build 192)  -->
  <defs>
    <style>
      .st0 {
        fill: #ffedd4;
      }
    </style>
  </defs>
  <path class="st0" d="M21.3,6c-.2,0-.3.1-.3.3v5.5l-1.2-.7c0,0-.2,0-.3,0s-.2,0-.3,0l-3,1.7c-.2,0-.3.3-.3.4v3.5c0,.2,0,.3.3.4l3,1.7c0,0,.2,0,.3,0s.2,0,.3,0l3-1.7c.2,0,.3-.3.3-.4V7.2c0-.2,0-.3-.2-.4l-1.3-.8s0,0-.1,0ZM11.5,11c0,0-.2,0-.3,0l-3,1.7c-.2,0-.3.3-.3.4v3.5c0,.2,0,.3.3.4l3,1.7c.2,0,.4,0,.5,0l3-1.7c.2,0,.3-.3.3-.4v-3.5c0-.2,0-.3-.3-.4l-3-1.7c0,0-.2,0-.3,0ZM27.5,11c0,0-.2,0-.3,0l-3,1.7c-.2,0-.3.3-.3.4v3.5c0,.2,0,.3.3.4l2.9,1.8c.2,0,.4,0,.5,0l1.4-.8c.1,0,.1-.3,0-.4l-3.1-1.8v-1.8l1.5-.9,1.5.9v1.2c0,.2.1.2.2.1.4-.2,1.5-.9,1.5-.9.2,0,.2-.3.2-.4v-.9c0-.2,0-.3-.3-.4l-3-1.7c0,0-.2,0-.3,0ZM3.5,11c0,0-.2,0-.3,0l-3,1.7c-.2,0-.3.3-.3.4v4.5c0,.2.2.4.4.2l1.3-.8c.2,0,.2-.3.2-.4v-2.6l1.5-.9,1.5.9v2.6c0,.2,0,.3.2.4l1.3.8c.2.1.4,0,.4-.2v-4.5c0-.2,0-.3-.3-.4l-3-1.7c0,0-.2,0-.3,0ZM19.5,13.2l1.5.9v1.8l-1.5.9-1.5-.9v-1.8l1.5-.9ZM27.5,14l-.9.5v1l.9.5.9-.5v-1l-.9-.5ZM15.4,18c-.1,0-.2,0-.3,0l-2.8,1.6c-.2.1-.3.3-.3.5v3.2c0,.2.1.4.3.5l.7.4c.4.2.5.2.6.2.5,0,.8-.3.8-.9v-3.2s0,0,0,0h-.4s0,0,0,0v3.2c0,.2-.3.5-.7.3l-.8-.4s0,0,0,0v-3.2s0,0,0,0l2.8-1.6s0,0,0,0l2.8,1.6s0,0,0,0v3.2s0,0,0,0l-2.8,1.6s0,0,0,0l-.7-.4s0,0,0,0c-.2.1-.2.1-.4.2,0,0-.1,0,0,.1l.9.6c0,0,.2,0,.3,0s.2,0,.3,0l2.8-1.6c.2-.1.3-.3.3-.5v-3.2c0-.2-.1-.4-.3-.5l-2.8-1.6c0,0-.2,0-.3,0ZM19.8,19.5c-.3,0-.5.2-.5.5s.2.5.5.5.5-.2.5-.5-.2-.5-.5-.5ZM19.8,19.6c.3,0,.5.2.5.5s-.2.5-.5.5c-.2,0-.5-.2-.5-.5s.2-.5.5-.5ZM19.6,19.7v.6h.1v-.2h.1s0,0,0,0c0,0,0,.2,0,.2h.1s0-.1,0-.2c0,0,0-.1-.1-.1,0,0,.1,0,.1-.2,0-.2-.1-.2-.2-.2h-.2ZM19.7,19.8h0s0,0,0,0,0,0,0,0h0v-.2ZM16.2,20.3c-.8,0-1.3.3-1.3.9s.5.8,1.2.9c.9,0,1,.2,1,.4,0,.3-.3.4-.8.4s-.9-.2-1-.6c0,0,0,0,0,0h-.4s0,0,0,0c0,.5.3,1,1.5,1,.9,0,1.4-.4,1.4-1s-.4-.8-1.3-.9c-.9-.1-1-.2-1-.4s0-.4.7-.4.8.1.9.5c0,0,0,0,0,0h.4s0,0,0,0c0,0,0,0,0,0,0-.7-.5-1-1.4-1Z"/>
</svg>