<?xml version="1.0" encoding="UTF-8"?>
<svg id="Layer_1" xmlns="http://www.w3.org/2000/svg" version="1.1" viewBox="0 0 35.9 32">
  <!-- Generator: Adobe Illustrator 29.0.1, SVG Export Plug-In . SVG Version: 2.1.0 Build 192)  -->
  <defs>
    <style>
      .st0 {
        fill: #ffedd4;
      }
    </style>
  </defs>
  <path class="st0" d="M29.5,10.4c-.4-.1-.8-.3-1.2-.4,0-.3.1-.5.2-.8.9-4.2.3-7.7-1.7-8.8-1.9-1.1-4.9,0-8,2.7-.3.3-.6.5-.9.8-.2-.2-.4-.4-.6-.5C14.1.5,10.9-.7,8.9.5c-1.9,1.1-2.4,4.3-1.6,8.3,0,.4.2.8.3,1.2-.5.1-.9.3-1.3.4C2.4,11.7,0,13.8,0,16s2.6,4.5,6.6,5.8c.3.1.6.2,1,.3-.1.4-.2.9-.3,1.3-.8,4-.2,7.1,1.7,8.2,1.9,1.1,5.2,0,8.3-2.8.3-.2.5-.5.7-.7.3.3.6.6,1,.9,3.1,2.6,6.1,3.7,7.9,2.6,1.9-1.1,2.6-4.5,1.7-8.6,0-.3-.1-.6-.2-1,.2,0,.5-.1.7-.2,4.1-1.4,6.8-3.6,6.8-5.8s-2.5-4.3-6.4-5.6ZM28.6,20.3c-.2,0-.4.1-.6.2-.5-1.4-1.1-3-1.8-4.6.7-1.5,1.3-3.1,1.7-4.5.4.1.7.2,1.1.3,3.3,1.1,5.4,2.8,5.4,4.1s-2.2,3.2-5.7,4.4ZM27.2,23.2c.4,1.8.4,3.5.2,4.7-.2,1.2-.6,1.9-1.2,2.2-1.1.7-3.6-.2-6.2-2.4-.3-.3-.6-.5-.9-.8,1-1.1,2-2.4,3-3.8,1.7-.2,3.4-.4,4.9-.8,0,.3.1.6.2.9ZM12.2,30.1c-1.1.4-2,.4-2.5,0-1.1-.7-1.6-3.2-1-6.6,0-.4.2-.8.3-1.2,1.5.3,3.1.6,4.8.7,1,1.4,2,2.7,3.1,3.8-.2.2-.5.4-.7.6-1.4,1.2-2.8,2.1-4,2.5ZM7.1,20.3c-1.8-.6-3.2-1.4-4.2-2.2-.9-.8-1.3-1.5-1.3-2.1,0-1.3,2-3,5.2-4.1.4-.1.8-.3,1.2-.4.4,1.5,1,3,1.8,4.5-.7,1.6-1.3,3.1-1.8,4.6-.3,0-.6-.2-.9-.3ZM8.8,8.5c-.7-3.5-.2-6.1.9-6.7,1.2-.7,3.9.3,6.7,2.8.2.2.4.3.5.5-1,1.1-2.1,2.4-3.1,3.8-1.7.2-3.3.4-4.8.7,0-.4-.2-.7-.2-1.1h0ZM24.3,12.3c-.4-.6-.7-1.2-1.1-1.8,1.1.1,2.2.3,3.3.6-.3,1-.7,2-1.1,3.1-.3-.6-.7-1.3-1-1.9ZM18,6.2c.7.8,1.4,1.6,2.1,2.6-1.4,0-2.8,0-4.2,0,.7-.9,1.4-1.8,2.1-2.6ZM11.6,12.3c-.4.6-.7,1.2-1,1.9-.4-1.1-.8-2.1-1.1-3.1,1-.2,2.1-.4,3.3-.6-.4.6-.7,1.2-1.1,1.8h0ZM12.8,21.5c-1.2-.1-2.3-.3-3.3-.5.3-1,.7-2.1,1.2-3.2.3.6.7,1.2,1,1.9.4.6.7,1.2,1.1,1.8ZM18,25.9c-.7-.8-1.5-1.7-2.2-2.6.7,0,1.4,0,2.1,0s1.5,0,2.2,0c-.7,1-1.4,1.8-2.1,2.6ZM25.4,17.7c.5,1.1.9,2.2,1.2,3.2-1,.2-2.2.4-3.4.6.4-.6.7-1.2,1.1-1.8.4-.6.7-1.3,1-1.9ZM23,18.9c-.5.9-1.1,1.9-1.7,2.8-1.1,0-2.2.1-3.3.1-1.1,0-2.2,0-3.3-.1-.6-.9-1.2-1.8-1.8-2.8h0c-.5-.9-1.1-1.9-1.5-2.9.5-1,1-2,1.5-2.9h0c.5-.9,1.1-1.9,1.7-2.8,1.1,0,2.2-.1,3.3-.1h0c1.1,0,2.2,0,3.3.1.6.9,1.2,1.8,1.7,2.8.5.9,1.1,1.9,1.5,2.9-.5,1-1,2-1.5,2.9ZM26.1,1.7c1.2.7,1.7,3.5.9,7.2,0,.2-.1.5-.2.7-1.5-.3-3.1-.6-4.8-.8-1-1.4-2-2.7-3-3.8.3-.3.5-.5.8-.8,2.7-2.3,5.1-3.2,6.3-2.6ZM18,12.7c1.8,0,3.2,1.4,3.2,3.2s-1.4,3.2-3.2,3.2-3.2-1.4-3.2-3.2,1.4-3.2,3.2-3.2Z"/>
</svg>