<?xml version="1.0" encoding="UTF-8"?>
<svg id="Capa_1" xmlns="http://www.w3.org/2000/svg" version="1.1" viewBox="0 0 512 512">
  <!-- Generator: Adobe Illustrator 29.0.1, SVG Export Plug-In . SVG Version: 2.1.0 Build 192)  -->
  <defs>
    <style>
      .st0 {
        fill: #ffedd4;
      }
    </style>
  </defs>
  <path class="st0" d="M462,0H50C22.4,0,0,22.4,0,50v412c0,27.6,22.4,50,50,50h412c27.6,0,50-22.4,50-50V50c0-27.6-22.4-50-50-50ZM297,284.1h-64.2v182.9h-50.9v-182.9h-63.9v-41.1h179v41.1ZM462.9,434.6c-10,17.8-28.3,27.8-47.7,32-22.6,4.8-46.7,4.6-69.3.3-11.1-2.1-20.7-5.2-28.9-9.4v-50.1c9.1,7.6,18.9,13.3,29.6,17.1,10.6,3.8,21.4,5.7,32.2,5.7s20.3-1.2,28.6-6.5c5.7-3.6,9.5-9.3,9.5-16.2s-6.7-16.4-14-21.3c-10.6-7.2-22.9-11.8-34.7-16.7-17.5-7.3-30.6-16.2-39.2-26.8-15-18.3-17.4-47.6-5.9-68.3,9.9-17.7,28.1-28.1,47.3-32.7,20.9-5,43.6-5,64.9-1.7,9,1.4,17.3,3.6,25,6.5v46.8c-3.8-2.6-7.9-4.9-12.3-6.9-8.7-3.9-18.2-6.5-27.7-7.8-9.5-1.3-19.5-1.5-28.9.7-7.4,1.7-15.1,5.1-19.4,11.7-1.8,2.8-2.7,5.9-2.7,9.3s1,7.1,3,10.1c5,7.5,13.8,12.4,21.8,16.3,13.9,6.8,28.5,11.9,41.9,19.9,13,7.7,24.5,18.3,30.1,32.5,2.7,6.8,4.1,14.8,4.1,23.9,0,12.5-2.4,23-7.1,31.5Z"/>
</svg>