<?xml version="1.0" encoding="UTF-8"?>
<svg id="Capa_1" xmlns="http://www.w3.org/2000/svg" version="1.1" viewBox="0 0 512 512">
  <!-- Generator: Adobe Illustrator 29.0.1, SVG Export Plug-In . SVG Version: 2.1.0 Build 192)  -->
  <defs>
    <style>
      .st0 {
        fill: #ffedd4;
      }
    </style>
  </defs>
  <g id="Layer_2">
    <g id="Surfaces">
      <g id="UI_UX_Surface">
        <g id="Outline_no_shadow">
          <path class="st0" d="M421.3,6.4H90.7C40.6,6.4,0,47,0,97.1v317.9c0,50.1,40.6,90.7,90.7,90.7h330.7c50.1,0,90.7-40.6,90.7-90.7V97.1c0-50.1-40.6-90.7-90.7-90.7ZM274,357.7c-.2.8-1,.3-2.4.5h-48.8c-3.4,0-5.8-.1-7.2-2.4-4.6-8.9-9.2-17.8-13.7-26.6-4.6-8.8-9.5-17.8-14.6-27-5.2-9.2-10.2-18.4-15.3-27.8h-.3c-4.6,9.2-9.3,18.3-14.3,27.5-4.9,9.2-9.8,18.3-14.6,27.3-4.8,9-9.7,18-14.8,27-.9,2-2.5,2.3-4.8,2.3h-47c-.9,0-1.4.4-1.6-.6-.1-.8,0-1.7.5-2.4l66.3-108.9-64.6-109.2c-.7-.9-.8-1.7-.3-2.2.5-.6,1.3-.9,2.1-.9h48.4c1.1,0,2.1.1,3.1.5.8.5,1.5,1.1,2.1,1.9,4.1,9.2,8.7,18.3,13.7,27.5s10.1,18.2,15.3,27.1c5.1,8.9,9.9,18,14.3,27.1h.3c4.6-9.4,9.2-18.6,13.9-27.5,4.7-8.9,9.5-17.9,14.4-27s9.7-18,14.3-27c.3-.9.7-1.6,1.4-2.2.9-.4,1.8-.6,2.8-.5h45c1-.3,2.1.4,2.4,1.4.2.7,0,1.5-.7,2l-63.9,105.4,68.4,112c.4.8.5,1.7.3,2.6ZM435.4,349.3c-11.2,4.7-22.8,8.1-34.7,10.3-10.9,2-21.9,3-33,3.1-15.8.2-31.5-3-45.9-9.6-13.4-6.2-24.6-16.3-32.1-29-7.8-12.9-11.7-29.1-11.7-48.6-.1-15.8,3.9-31.3,11.7-45,8-14,19.8-25.4,34-33,14.9-8.2,32.9-12.4,53.9-12.4s2.6,0,4.5.2c1.8.1,4,.3,6.5.5v-67.7c0-1.6.7-2.4,2.1-2.4h43.3c1-.1,1.9.6,2.1,1.6,0,.2,0,.3,0,.5v203c0,3.9.2,8.1.5,12.7s.6,8.7.9,12.4c0,1.5-.8,2.8-2.1,3.5ZM376,224.9c-8.3,0-16.6,1.8-24,5.5-7.3,3.6-13.5,9.1-18,15.8-4.7,6.9-7,15.9-7,27.1-.1,7.5,1.1,14.9,3.6,22,2.1,5.7,5.4,10.8,9.6,15.1,4.1,3.9,9,6.9,14.4,8.6,5.7,1.9,11.7,2.8,17.7,2.8,3.2,0,6.2-.1,8.9-.3,2.6-.2,5.1-.7,7.6-1.4v-93.8c-1.9-.5-3.8-.8-5.7-1-2.3-.2-4.7-.3-7-.3Z"/>
        </g>
      </g>
    </g>
  </g>
</svg>